<svg width="370" height="110" viewBox="0 0 370 110" fill="none" xmlns="http://www.w3.org/2000/svg">
<g clip-path="url(#clip0_1_42)">
<path d="M368.919 0H21.0811C9.43832 0 0 8.9543 0 20V90C0 101.046 9.43832 110 21.0811 110H368.919C380.562 110 390 101.046 390 90V20C390 8.9543 380.562 0 368.919 0Z" fill="white" fill-opacity="0.8"/>
<path d="M118.872 35.432C118.872 36.328 118.656 37.168 118.224 37.952C117.808 38.736 117.144 39.368 116.232 39.848C115.336 40.328 114.2 40.568 112.824 40.568H110.016V47H106.656V30.248H112.824C114.12 30.248 115.224 30.472 116.136 30.92C117.048 31.368 117.728 31.984 118.176 32.768C118.64 33.552 118.872 34.44 118.872 35.432ZM112.68 37.856C113.608 37.856 114.296 37.648 114.744 37.232C115.192 36.8 115.416 36.2 115.416 35.432C115.416 33.8 114.504 32.984 112.68 32.984H110.016V37.856H112.68ZM120.394 40.304C120.394 38.96 120.658 37.768 121.186 36.728C121.73 35.688 122.458 34.888 123.37 34.328C124.298 33.768 125.33 33.488 126.466 33.488C127.458 33.488 128.322 33.688 129.058 34.088C129.81 34.488 130.41 34.992 130.858 35.6V33.704H134.242V47H130.858V45.056C130.426 45.68 129.826 46.2 129.058 46.616C128.306 47.016 127.434 47.216 126.442 47.216C125.322 47.216 124.298 46.928 123.37 46.352C122.458 45.776 121.73 44.968 121.186 43.928C120.658 42.872 120.394 41.664 120.394 40.304ZM130.858 40.352C130.858 39.536 130.698 38.84 130.378 38.264C130.058 37.672 129.626 37.224 129.082 36.92C128.538 36.6 127.954 36.44 127.33 36.44C126.706 36.44 126.13 36.592 125.602 36.896C125.074 37.2 124.642 37.648 124.306 38.24C123.986 38.816 123.826 39.504 123.826 40.304C123.826 41.104 123.986 41.808 124.306 42.416C124.642 43.008 125.074 43.464 125.602 43.784C126.146 44.104 126.722 44.264 127.33 44.264C127.954 44.264 128.538 44.112 129.082 43.808C129.626 43.488 130.058 43.04 130.378 42.464C130.698 41.872 130.858 41.168 130.858 40.352ZM140.883 35.768C141.315 35.064 141.875 34.512 142.563 34.112C143.267 33.712 144.067 33.512 144.963 33.512V37.04H144.075C143.019 37.04 142.219 37.288 141.675 37.784C141.147 38.28 140.883 39.144 140.883 40.376V47H137.523V33.704H140.883V35.768ZM146.362 40.304C146.362 38.96 146.626 37.768 147.154 36.728C147.698 35.688 148.426 34.888 149.338 34.328C150.266 33.768 151.298 33.488 152.434 33.488C153.426 33.488 154.29 33.688 155.026 34.088C155.778 34.488 156.378 34.992 156.826 35.6V33.704H160.21V47H156.826V45.056C156.394 45.68 155.794 46.2 155.026 46.616C154.274 47.016 153.402 47.216 152.41 47.216C151.29 47.216 150.266 46.928 149.338 46.352C148.426 45.776 147.698 44.968 147.154 43.928C146.626 42.872 146.362 41.664 146.362 40.304ZM156.826 40.352C156.826 39.536 156.666 38.84 156.346 38.264C156.026 37.672 155.594 37.224 155.05 36.92C154.506 36.6 153.922 36.44 153.298 36.44C152.674 36.44 152.098 36.592 151.57 36.896C151.042 37.2 150.61 37.648 150.274 38.24C149.954 38.816 149.794 39.504 149.794 40.304C149.794 41.104 149.954 41.808 150.274 42.416C150.61 43.008 151.042 43.464 151.57 43.784C152.114 44.104 152.69 44.264 153.298 44.264C153.922 44.264 154.506 44.112 155.05 43.808C155.594 43.488 156.026 43.04 156.346 42.464C156.666 41.872 156.826 41.168 156.826 40.352ZM166.852 35.648C167.284 35.008 167.876 34.488 168.628 34.088C169.396 33.688 170.268 33.488 171.244 33.488C172.38 33.488 173.404 33.768 174.316 34.328C175.244 34.888 175.972 35.688 176.5 36.728C177.044 37.752 177.316 38.944 177.316 40.304C177.316 41.664 177.044 42.872 176.5 43.928C175.972 44.968 175.244 45.776 174.316 46.352C173.404 46.928 172.38 47.216 171.244 47.216C170.252 47.216 169.38 47.024 168.628 46.64C167.892 46.24 167.3 45.728 166.852 45.104V47H163.492V29.24H166.852V35.648ZM173.884 40.304C173.884 39.504 173.716 38.816 173.38 38.24C173.06 37.648 172.628 37.2 172.084 36.896C171.556 36.592 170.98 36.44 170.356 36.44C169.748 36.44 169.172 36.6 168.628 36.92C168.1 37.224 167.668 37.672 167.332 38.264C167.012 38.856 166.852 39.552 166.852 40.352C166.852 41.152 167.012 41.848 167.332 42.44C167.668 43.032 168.1 43.488 168.628 43.808C169.172 44.112 169.748 44.264 170.356 44.264C170.98 44.264 171.556 44.104 172.084 43.784C172.628 43.464 173.06 43.008 173.38 42.416C173.716 41.824 173.884 41.12 173.884 40.304ZM192.118 40.064C192.118 40.544 192.086 40.976 192.022 41.36H182.302C182.382 42.32 182.718 43.072 183.31 43.616C183.902 44.16 184.63 44.432 185.494 44.432C186.742 44.432 187.63 43.896 188.158 42.824H191.782C191.398 44.104 190.662 45.16 189.574 45.992C188.486 46.808 187.15 47.216 185.566 47.216C184.286 47.216 183.134 46.936 182.11 46.376C181.102 45.8 180.31 44.992 179.734 43.952C179.174 42.912 178.894 41.712 178.894 40.352C178.894 38.976 179.174 37.768 179.734 36.728C180.294 35.688 181.078 34.888 182.086 34.328C183.094 33.768 184.254 33.488 185.566 33.488C186.83 33.488 187.958 33.76 188.95 34.304C189.958 34.848 190.734 35.624 191.278 36.632C191.838 37.624 192.118 38.768 192.118 40.064ZM188.638 39.104C188.622 38.24 188.31 37.552 187.702 37.04C187.094 36.512 186.35 36.248 185.47 36.248C184.638 36.248 183.934 36.504 183.358 37.016C182.798 37.512 182.454 38.208 182.326 39.104H188.638ZM188.134 30.2L182.614 32.72V30.32L188.134 27.464V30.2ZM201.938 33.512C203.522 33.512 204.802 34.016 205.778 35.024C206.754 36.016 207.242 37.408 207.242 39.2V47H203.882V39.656C203.882 38.6 203.618 37.792 203.09 37.232C202.562 36.656 201.842 36.368 200.93 36.368C200.002 36.368 199.266 36.656 198.722 37.232C198.194 37.792 197.93 38.6 197.93 39.656V47H194.57V33.704H197.93V35.36C198.378 34.784 198.946 34.336 199.634 34.016C200.338 33.68 201.106 33.512 201.938 33.512ZM215.525 47.216C214.437 47.216 213.461 47.024 212.597 46.64C211.733 46.24 211.045 45.704 210.533 45.032C210.037 44.36 209.765 43.616 209.717 42.8H213.101C213.165 43.312 213.413 43.736 213.845 44.072C214.293 44.408 214.845 44.576 215.501 44.576C216.141 44.576 216.637 44.448 216.989 44.192C217.357 43.936 217.541 43.608 217.541 43.208C217.541 42.776 217.317 42.456 216.869 42.248C216.437 42.024 215.741 41.784 214.781 41.528C213.789 41.288 212.973 41.04 212.333 40.784C211.709 40.528 211.165 40.136 210.701 39.608C210.253 39.08 210.029 38.368 210.029 37.472C210.029 36.736 210.237 36.064 210.653 35.456C211.085 34.848 211.693 34.368 212.477 34.016C213.277 33.664 214.213 33.488 215.285 33.488C216.869 33.488 218.133 33.888 219.077 34.688C220.021 35.472 220.541 36.536 220.637 37.88H217.421C217.373 37.352 217.149 36.936 216.749 36.632C216.365 36.312 215.845 36.152 215.189 36.152C214.581 36.152 214.109 36.264 213.773 36.488C213.453 36.712 213.293 37.024 213.293 37.424C213.293 37.872 213.517 38.216 213.965 38.456C214.413 38.68 215.109 38.912 216.053 39.152C217.013 39.392 217.805 39.64 218.429 39.896C219.053 40.152 219.589 40.552 220.037 41.096C220.501 41.624 220.741 42.328 220.757 43.208C220.757 43.976 220.541 44.664 220.109 45.272C219.693 45.88 219.085 46.36 218.285 46.712C217.501 47.048 216.581 47.216 215.525 47.216ZM227.859 29.96L227.475 41.552H224.643L224.235 29.96H227.859ZM226.131 47.168C225.523 47.168 225.019 46.984 224.619 46.616C224.235 46.232 224.043 45.76 224.043 45.2C224.043 44.64 224.235 44.176 224.619 43.808C225.019 43.424 225.523 43.232 226.131 43.232C226.723 43.232 227.211 43.424 227.595 43.808C227.979 44.176 228.171 44.64 228.171 45.2C228.171 45.76 227.979 46.232 227.595 46.616C227.211 46.984 226.723 47.168 226.131 47.168Z" fill="#4B5563"/>
<path d="M68 30H34C29.5817 30 26 33.5817 26 38V72C26 76.4183 29.5817 80 34 80H68C72.4183 80 76 76.4183 76 72V38C76 33.5817 72.4183 30 68 30Z" fill="#F88C3D"/>
<path d="M64.9285 44.2857H37.0714L51 55.7586L65.086 44.3179C65.0345 44.3028 64.9818 44.2921 64.9285 44.2857Z" fill="white"/>
<path d="M51.676 57.9742C51.2813 58.2975 50.7133 58.2975 50.3186 57.9742L36 46.1778V64.6428C36 65.2346 36.4797 65.7143 37.0714 65.7143H64.9285C65.5203 65.7143 66 65.2346 66 64.6428V46.3364L51.676 57.9742Z" fill="white"/>
<path d="M109.864 73.112C109.117 73.112 108.445 72.984 107.848 72.728C107.251 72.4613 106.781 72.088 106.44 71.608C106.099 71.128 105.928 70.568 105.928 69.928H107.88C107.923 70.408 108.109 70.8027 108.44 71.112C108.781 71.4213 109.256 71.576 109.864 71.576C110.493 71.576 110.984 71.4267 111.336 71.128C111.688 70.8187 111.864 70.424 111.864 69.944C111.864 69.5707 111.752 69.2667 111.528 69.032C111.315 68.7973 111.043 68.616 110.712 68.488C110.392 68.36 109.944 68.2213 109.368 68.072C108.643 67.88 108.051 67.688 107.592 67.496C107.144 67.2933 106.76 66.984 106.44 66.568C106.12 66.152 105.96 65.5973 105.96 64.904C105.96 64.264 106.12 63.704 106.44 63.224C106.76 62.744 107.208 62.376 107.784 62.12C108.36 61.864 109.027 61.736 109.784 61.736C110.861 61.736 111.741 62.008 112.424 62.552C113.117 63.0853 113.501 63.8213 113.576 64.76H111.56C111.528 64.3547 111.336 64.008 110.984 63.72C110.632 63.432 110.168 63.288 109.592 63.288C109.069 63.288 108.643 63.4213 108.312 63.688C107.981 63.9547 107.816 64.3387 107.816 64.84C107.816 65.1813 107.917 65.464 108.12 65.688C108.333 65.9013 108.6 66.072 108.92 66.2C109.24 66.328 109.677 66.4667 110.232 66.616C110.968 66.8187 111.565 67.0213 112.024 67.224C112.493 67.4267 112.888 67.7413 113.208 68.168C113.539 68.584 113.704 69.144 113.704 69.848C113.704 70.4133 113.549 70.9467 113.24 71.448C112.941 71.9493 112.499 72.3547 111.912 72.664C111.336 72.9627 110.653 73.112 109.864 73.112ZM123.84 64.184V73H122.016V71.96C121.728 72.3227 121.35 72.6107 120.88 72.824C120.422 73.0267 119.931 73.128 119.408 73.128C118.715 73.128 118.091 72.984 117.536 72.696C116.992 72.408 116.56 71.9813 116.24 71.416C115.931 70.8507 115.776 70.168 115.776 69.368V64.184H117.584V69.096C117.584 69.8853 117.782 70.4933 118.176 70.92C118.571 71.336 119.11 71.544 119.792 71.544C120.475 71.544 121.014 71.336 121.408 70.92C121.814 70.4933 122.016 69.8853 122.016 69.096V64.184H123.84ZM125.639 68.552C125.639 67.6667 125.82 66.8827 126.183 66.2C126.556 65.5173 127.058 64.9893 127.687 64.616C128.327 64.232 129.031 64.04 129.799 64.04C130.492 64.04 131.095 64.1787 131.607 64.456C132.13 64.7227 132.546 65.0587 132.855 65.464V64.184H134.695V73H132.855V71.688C132.546 72.104 132.124 72.4507 131.591 72.728C131.058 73.0053 130.45 73.144 129.767 73.144C129.01 73.144 128.316 72.952 127.687 72.568C127.058 72.1733 126.556 71.6293 126.183 70.936C125.82 70.232 125.639 69.4373 125.639 68.552ZM132.855 68.584C132.855 67.976 132.727 67.448 132.471 67C132.226 66.552 131.9 66.2107 131.495 65.976C131.09 65.7413 130.652 65.624 130.183 65.624C129.714 65.624 129.276 65.7413 128.871 65.976C128.466 66.2 128.135 66.536 127.879 66.984C127.634 67.4213 127.511 67.944 127.511 68.552C127.511 69.16 127.634 69.6933 127.879 70.152C128.135 70.6107 128.466 70.9627 128.871 71.208C129.287 71.4427 129.724 71.56 130.183 71.56C130.652 71.56 131.09 71.4427 131.495 71.208C131.9 70.9733 132.226 70.632 132.471 70.184C132.727 69.7253 132.855 69.192 132.855 68.584ZM140.639 68.552C140.639 67.6667 140.82 66.8827 141.183 66.2C141.556 65.5173 142.058 64.9893 142.687 64.616C143.327 64.232 144.031 64.04 144.799 64.04C145.492 64.04 146.095 64.1787 146.607 64.456C147.13 64.7227 147.546 65.0587 147.855 65.464V64.184H149.695V73H147.855V71.688C147.546 72.104 147.124 72.4507 146.591 72.728C146.058 73.0053 145.45 73.144 144.767 73.144C144.01 73.144 143.316 72.952 142.687 72.568C142.058 72.1733 141.556 71.6293 141.183 70.936C140.82 70.232 140.639 69.4373 140.639 68.552ZM147.855 68.584C147.855 67.976 147.727 67.448 147.471 67C147.226 66.552 146.9 66.2107 146.495 65.976C146.09 65.7413 145.652 65.624 145.183 65.624C144.714 65.624 144.276 65.7413 143.871 65.976C143.466 66.2 143.135 66.536 142.879 66.984C142.634 67.4213 142.511 67.944 142.511 68.552C142.511 69.16 142.634 69.6933 142.879 70.152C143.135 70.6107 143.466 70.9627 143.871 71.208C144.287 71.4427 144.724 71.56 145.183 71.56C145.652 71.56 146.09 71.4427 146.495 71.208C146.9 70.9733 147.226 70.632 147.471 70.184C147.727 69.7253 147.855 69.192 147.855 68.584ZM151.483 68.552C151.483 67.6667 151.664 66.8827 152.027 66.2C152.4 65.5173 152.901 64.9893 153.531 64.616C154.171 64.232 154.88 64.04 155.659 64.04C156.235 64.04 156.8 64.168 157.355 64.424C157.92 64.6693 158.368 65 158.699 65.416V61.16H160.539V73H158.699V71.672C158.4 72.0987 157.984 72.4507 157.451 72.728C156.928 73.0053 156.325 73.144 155.643 73.144C154.875 73.144 154.171 72.952 153.531 72.568C152.901 72.1733 152.4 71.6293 152.027 70.936C151.664 70.232 151.483 69.4373 151.483 68.552ZM158.699 68.584C158.699 67.976 158.571 67.448 158.315 67C158.069 66.552 157.744 66.2107 157.339 65.976C156.933 65.7413 156.496 65.624 156.027 65.624C155.557 65.624 155.12 65.7413 154.715 65.976C154.309 66.2 153.979 66.536 153.723 66.984C153.477 67.4213 153.355 67.944 153.355 68.552C153.355 69.16 153.477 69.6933 153.723 70.152C153.979 70.6107 154.309 70.9627 154.715 71.208C155.131 71.4427 155.568 71.56 156.027 71.56C156.496 71.56 156.933 71.4427 157.339 71.208C157.744 70.9733 158.069 70.632 158.315 70.184C158.571 69.7253 158.699 69.192 158.699 68.584ZM173.606 64.04C174.3 64.04 174.918 64.184 175.462 64.472C176.017 64.76 176.449 65.1867 176.758 65.752C177.078 66.3173 177.238 67 177.238 67.8V73H175.43V68.072C175.43 67.2827 175.233 66.68 174.838 66.264C174.444 65.8373 173.905 65.624 173.222 65.624C172.54 65.624 171.996 65.8373 171.59 66.264C171.196 66.68 170.998 67.2827 170.998 68.072V73H169.19V68.072C169.19 67.2827 168.993 66.68 168.598 66.264C168.204 65.8373 167.665 65.624 166.982 65.624C166.3 65.624 165.756 65.8373 165.35 66.264C164.956 66.68 164.758 67.2827 164.758 68.072V73H162.934V64.184H164.758V65.192C165.057 64.8293 165.436 64.5467 165.894 64.344C166.353 64.1413 166.844 64.04 167.366 64.04C168.07 64.04 168.7 64.1893 169.254 64.488C169.809 64.7867 170.236 65.2187 170.534 65.784C170.801 65.2507 171.217 64.8293 171.782 64.52C172.348 64.2 172.956 64.04 173.606 64.04ZM180.487 63.016C180.157 63.016 179.879 62.904 179.655 62.68C179.431 62.456 179.319 62.1787 179.319 61.848C179.319 61.5173 179.431 61.24 179.655 61.016C179.879 60.792 180.157 60.68 180.487 60.68C180.807 60.68 181.079 60.792 181.303 61.016C181.527 61.24 181.639 61.5173 181.639 61.848C181.639 62.1787 181.527 62.456 181.303 62.68C181.079 62.904 180.807 63.016 180.487 63.016ZM181.383 64.184V73H179.559V64.184H181.383ZM186.978 73.144C186.285 73.144 185.661 73.0213 185.106 72.776C184.562 72.52 184.13 72.1787 183.81 71.752C183.49 71.3147 183.319 70.8293 183.298 70.296H185.186C185.218 70.6693 185.394 70.984 185.714 71.24C186.045 71.4853 186.455 71.608 186.946 71.608C187.458 71.608 187.853 71.512 188.13 71.32C188.418 71.1173 188.562 70.8613 188.562 70.552C188.562 70.2213 188.402 69.976 188.082 69.816C187.773 69.656 187.277 69.48 186.594 69.288C185.933 69.1067 185.394 68.9307 184.978 68.76C184.562 68.5893 184.199 68.328 183.89 67.976C183.591 67.624 183.442 67.16 183.442 66.584C183.442 66.1147 183.581 65.688 183.858 65.304C184.135 64.9093 184.53 64.6 185.042 64.376C185.565 64.152 186.162 64.04 186.834 64.04C187.837 64.04 188.642 64.296 189.25 64.808C189.869 65.3093 190.199 65.9973 190.242 66.872H188.418C188.386 66.4773 188.226 66.1627 187.938 65.928C187.65 65.6933 187.261 65.576 186.77 65.576C186.29 65.576 185.922 65.6667 185.666 65.848C185.41 66.0293 185.282 66.2693 185.282 66.568C185.282 66.8027 185.367 67 185.538 67.16C185.709 67.32 185.917 67.448 186.162 67.544C186.407 67.6293 186.77 67.7413 187.25 67.88C187.89 68.0507 188.413 68.2267 188.818 68.408C189.234 68.5787 189.591 68.8347 189.89 69.176C190.189 69.5173 190.343 69.9707 190.354 70.536C190.354 71.0373 190.215 71.4853 189.938 71.88C189.661 72.2747 189.266 72.584 188.754 72.808C188.253 73.032 187.661 73.144 186.978 73.144ZM195.525 73.144C194.832 73.144 194.208 73.0213 193.653 72.776C193.109 72.52 192.677 72.1787 192.357 71.752C192.037 71.3147 191.866 70.8293 191.845 70.296H193.733C193.765 70.6693 193.941 70.984 194.261 71.24C194.592 71.4853 195.002 71.608 195.493 71.608C196.005 71.608 196.4 71.512 196.677 71.32C196.965 71.1173 197.109 70.8613 197.109 70.552C197.109 70.2213 196.949 69.976 196.629 69.816C196.32 69.656 195.824 69.48 195.141 69.288C194.48 69.1067 193.941 68.9307 193.525 68.76C193.109 68.5893 192.746 68.328 192.437 67.976C192.138 67.624 191.989 67.16 191.989 66.584C191.989 66.1147 192.128 65.688 192.405 65.304C192.682 64.9093 193.077 64.6 193.589 64.376C194.112 64.152 194.709 64.04 195.381 64.04C196.384 64.04 197.189 64.296 197.797 64.808C198.416 65.3093 198.746 65.9973 198.789 66.872H196.965C196.933 66.4773 196.773 66.1627 196.485 65.928C196.197 65.6933 195.808 65.576 195.317 65.576C194.837 65.576 194.469 65.6667 194.213 65.848C193.957 66.0293 193.829 66.2693 193.829 66.568C193.829 66.8027 193.914 67 194.085 67.16C194.256 67.32 194.464 67.448 194.709 67.544C194.954 67.6293 195.317 67.7413 195.797 67.88C196.437 68.0507 196.96 68.2267 197.365 68.408C197.781 68.5787 198.138 68.8347 198.437 69.176C198.736 69.5173 198.89 69.9707 198.901 70.536C198.901 71.0373 198.762 71.4853 198.485 71.88C198.208 72.2747 197.813 72.584 197.301 72.808C196.8 73.032 196.208 73.144 195.525 73.144ZM200.264 68.552C200.264 67.6667 200.445 66.8827 200.808 66.2C201.181 65.5173 201.683 64.9893 202.312 64.616C202.952 64.232 203.656 64.04 204.424 64.04C205.117 64.04 205.72 64.1787 206.232 64.456C206.755 64.7227 207.171 65.0587 207.48 65.464V64.184H209.32V73H207.48V71.688C207.171 72.104 206.749 72.4507 206.216 72.728C205.683 73.0053 205.075 73.144 204.392 73.144C203.635 73.144 202.941 72.952 202.312 72.568C201.683 72.1733 201.181 71.6293 200.808 70.936C200.445 70.232 200.264 69.4373 200.264 68.552ZM207.48 68.584C207.48 67.976 207.352 67.448 207.096 67C206.851 66.552 206.525 66.2107 206.12 65.976C205.715 65.7413 205.277 65.624 204.808 65.624C204.339 65.624 203.901 65.7413 203.496 65.976C203.091 66.2 202.76 66.536 202.504 66.984C202.259 67.4213 202.136 67.944 202.136 68.552C202.136 69.16 202.259 69.6933 202.504 70.152C202.76 70.6107 203.091 70.9627 203.496 71.208C203.912 71.4427 204.349 71.56 204.808 71.56C205.277 71.56 205.715 71.4427 206.12 71.208C206.525 70.9733 206.851 70.632 207.096 70.184C207.352 69.7253 207.48 69.192 207.48 68.584ZM202.488 63.272C202.573 62.6533 202.776 62.1893 203.096 61.88C203.416 61.56 203.816 61.4 204.296 61.4C204.499 61.4 204.675 61.432 204.824 61.496C204.973 61.56 205.155 61.656 205.368 61.784C205.528 61.8907 205.661 61.9707 205.768 62.024C205.885 62.0773 206.013 62.104 206.152 62.104C206.333 62.104 206.483 62.0507 206.6 61.944C206.728 61.8267 206.808 61.656 206.84 61.432H207.864C207.779 62.0507 207.576 62.52 207.256 62.84C206.936 63.1493 206.536 63.304 206.056 63.304C205.853 63.304 205.672 63.272 205.512 63.208C205.352 63.1333 205.176 63.032 204.984 62.904C204.792 62.7867 204.643 62.7067 204.536 62.664C204.44 62.6107 204.328 62.584 204.2 62.584C204.019 62.584 203.864 62.6427 203.736 62.76C203.619 62.8773 203.544 63.048 203.512 63.272H202.488ZM215.54 73.144C214.708 73.144 213.956 72.9573 213.284 72.584C212.612 72.2 212.084 71.6667 211.7 70.984C211.316 70.2907 211.124 69.4907 211.124 68.584C211.124 67.688 211.321 66.8933 211.716 66.2C212.11 65.5067 212.649 64.9733 213.332 64.6C214.014 64.2267 214.777 64.04 215.62 64.04C216.462 64.04 217.225 64.2267 217.908 64.6C218.59 64.9733 219.129 65.5067 219.524 66.2C219.918 66.8933 220.116 67.688 220.116 68.584C220.116 69.48 219.913 70.2747 219.508 70.968C219.102 71.6613 218.548 72.2 217.844 72.584C217.15 72.9573 216.382 73.144 215.54 73.144ZM215.54 71.56C216.009 71.56 216.446 71.448 216.852 71.224C217.268 71 217.604 70.664 217.86 70.216C218.116 69.768 218.244 69.224 218.244 68.584C218.244 67.944 218.121 67.4053 217.876 66.968C217.63 66.52 217.305 66.184 216.9 65.96C216.494 65.736 216.057 65.624 215.588 65.624C215.118 65.624 214.681 65.736 214.276 65.96C213.881 66.184 213.566 66.52 213.332 66.968C213.097 67.4053 212.98 67.944 212.98 68.584C212.98 69.5333 213.22 70.2693 213.7 70.792C214.19 71.304 214.804 71.56 215.54 71.56ZM229.771 65.672H228.139V73H226.299V65.672H225.259V64.184H226.299V63.56C226.299 62.5467 226.566 61.8107 227.099 61.352C227.643 60.8827 228.491 60.648 229.643 60.648V62.168C229.088 62.168 228.699 62.2747 228.475 62.488C228.251 62.6907 228.139 63.048 228.139 63.56V64.184H229.771V65.672ZM235.212 73.144C234.38 73.144 233.628 72.9573 232.956 72.584C232.284 72.2 231.756 71.6667 231.372 70.984C230.988 70.2907 230.796 69.4907 230.796 68.584C230.796 67.688 230.993 66.8933 231.388 66.2C231.782 65.5067 232.321 64.9733 233.004 64.6C233.686 64.2267 234.449 64.04 235.292 64.04C236.134 64.04 236.897 64.2267 237.58 64.6C238.262 64.9733 238.801 65.5067 239.196 66.2C239.59 66.8933 239.788 67.688 239.788 68.584C239.788 69.48 239.585 70.2747 239.18 70.968C238.774 71.6613 238.22 72.2 237.516 72.584C236.822 72.9573 236.054 73.144 235.212 73.144ZM235.212 71.56C235.681 71.56 236.118 71.448 236.524 71.224C236.94 71 237.276 70.664 237.532 70.216C237.788 69.768 237.916 69.224 237.916 68.584C237.916 67.944 237.793 67.4053 237.548 66.968C237.302 66.52 236.977 66.184 236.572 65.96C236.166 65.736 235.729 65.624 235.26 65.624C234.79 65.624 234.353 65.736 233.948 65.96C233.553 66.184 233.238 66.52 233.004 66.968C232.769 67.4053 232.652 67.944 232.652 68.584C232.652 69.5333 232.892 70.2693 233.372 70.792C233.862 71.304 234.476 71.56 235.212 71.56ZM242.519 63.016C242.188 63.016 241.911 62.904 241.687 62.68C241.463 62.456 241.351 62.1787 241.351 61.848C241.351 61.5173 241.463 61.24 241.687 61.016C241.911 60.792 242.188 60.68 242.519 60.68C242.839 60.68 243.111 60.792 243.335 61.016C243.559 61.24 243.671 61.5173 243.671 61.848C243.671 62.1787 243.559 62.456 243.335 62.68C243.111 62.904 242.839 63.016 242.519 63.016ZM243.415 64.184V73H241.591V64.184H243.415ZM249.358 68.584C249.358 67.6773 249.539 66.8827 249.902 66.2C250.275 65.5067 250.787 64.9733 251.438 64.6C252.088 64.2267 252.835 64.04 253.678 64.04C254.744 64.04 255.624 64.296 256.318 64.808C257.022 65.3093 257.496 66.0293 257.742 66.968H255.774C255.614 66.5307 255.358 66.1893 255.006 65.944C254.654 65.6987 254.211 65.576 253.678 65.576C252.931 65.576 252.334 65.8427 251.886 66.376C251.448 66.8987 251.23 67.6347 251.23 68.584C251.23 69.5333 251.448 70.2747 251.886 70.808C252.334 71.3413 252.931 71.608 253.678 71.608C254.734 71.608 255.432 71.144 255.774 70.216H257.742C257.486 71.112 257.006 71.8267 256.302 72.36C255.598 72.8827 254.723 73.144 253.678 73.144C252.835 73.144 252.088 72.9573 251.438 72.584C250.787 72.2 250.275 71.6667 249.902 70.984C249.539 70.2907 249.358 69.4907 249.358 68.584ZM263.383 73.144C262.551 73.144 261.799 72.9573 261.127 72.584C260.455 72.2 259.927 71.6667 259.543 70.984C259.159 70.2907 258.967 69.4907 258.967 68.584C258.967 67.688 259.165 66.8933 259.559 66.2C259.954 65.5067 260.493 64.9733 261.175 64.6C261.858 64.2267 262.621 64.04 263.463 64.04C264.306 64.04 265.069 64.2267 265.751 64.6C266.434 64.9733 266.973 65.5067 267.367 66.2C267.762 66.8933 267.959 67.688 267.959 68.584C267.959 69.48 267.757 70.2747 267.351 70.968C266.946 71.6613 266.391 72.2 265.687 72.584C264.994 72.9573 264.226 73.144 263.383 73.144ZM263.383 71.56C263.853 71.56 264.29 71.448 264.695 71.224C265.111 71 265.447 70.664 265.703 70.216C265.959 69.768 266.087 69.224 266.087 68.584C266.087 67.944 265.965 67.4053 265.719 66.968C265.474 66.52 265.149 66.184 264.743 65.96C264.338 65.736 263.901 65.624 263.431 65.624C262.962 65.624 262.525 65.736 262.119 65.96C261.725 66.184 261.41 66.52 261.175 66.968C260.941 67.4053 260.823 67.944 260.823 68.584C260.823 69.5333 261.063 70.2693 261.543 70.792C262.034 71.304 262.647 71.56 263.383 71.56ZM274.211 64.04C274.904 64.04 275.523 64.184 276.067 64.472C276.621 64.76 277.053 65.1867 277.363 65.752C277.672 66.3173 277.827 67 277.827 67.8V73H276.019V68.072C276.019 67.2827 275.821 66.68 275.427 66.264C275.032 65.8373 274.493 65.624 273.811 65.624C273.128 65.624 272.584 65.8373 272.179 66.264C271.784 66.68 271.587 67.2827 271.587 68.072V73H269.763V64.184H271.587V65.192C271.885 64.8293 272.264 64.5467 272.723 64.344C273.192 64.1413 273.688 64.04 274.211 64.04ZM279.545 68.584C279.545 67.6773 279.726 66.8827 280.089 66.2C280.462 65.5067 280.974 64.9733 281.625 64.6C282.276 64.2267 283.022 64.04 283.865 64.04C284.932 64.04 285.812 64.296 286.505 64.808C287.209 65.3093 287.684 66.0293 287.929 66.968H285.961C285.801 66.5307 285.545 66.1893 285.193 65.944C284.841 65.6987 284.398 65.576 283.865 65.576C283.118 65.576 282.521 65.8427 282.073 66.376C281.636 66.8987 281.417 67.6347 281.417 68.584C281.417 69.5333 281.636 70.2747 282.073 70.808C282.521 71.3413 283.118 71.608 283.865 71.608C284.921 71.608 285.62 71.144 285.961 70.216H287.929C287.673 71.112 287.193 71.8267 286.489 72.36C285.785 72.8827 284.91 73.144 283.865 73.144C283.022 73.144 282.276 72.9573 281.625 72.584C280.974 72.2 280.462 71.6667 280.089 70.984C279.726 70.2907 279.545 69.4907 279.545 68.584ZM291.571 61.16V73H289.747V61.16H291.571ZM301.95 64.184V73H300.126V71.96C299.838 72.3227 299.459 72.6107 298.99 72.824C298.531 73.0267 298.04 73.128 297.518 73.128C296.824 73.128 296.2 72.984 295.646 72.696C295.102 72.408 294.67 71.9813 294.35 71.416C294.04 70.8507 293.886 70.168 293.886 69.368V64.184H295.694V69.096C295.694 69.8853 295.891 70.4933 296.286 70.92C296.68 71.336 297.219 71.544 297.902 71.544C298.584 71.544 299.123 71.336 299.518 70.92C299.923 70.4933 300.126 69.8853 300.126 69.096V64.184H301.95ZM306.18 64.184V73H304.356V64.184H306.18ZM306.916 61.816L303.38 63.56V62.216L306.916 60.264V61.816ZM307.967 68.552C307.967 67.6667 308.148 66.8827 308.511 66.2C308.884 65.5173 309.386 64.9893 310.015 64.616C310.655 64.232 311.364 64.04 312.143 64.04C312.719 64.04 313.284 64.168 313.839 64.424C314.404 64.6693 314.852 65 315.183 65.416V61.16H317.023V73H315.183V71.672C314.884 72.0987 314.468 72.4507 313.935 72.728C313.412 73.0053 312.81 73.144 312.127 73.144C311.359 73.144 310.655 72.952 310.015 72.568C309.386 72.1733 308.884 71.6293 308.511 70.936C308.148 70.232 307.967 69.4373 307.967 68.552ZM315.183 68.584C315.183 67.976 315.055 67.448 314.799 67C314.554 66.552 314.228 66.2107 313.823 65.976C313.418 65.7413 312.98 65.624 312.511 65.624C312.042 65.624 311.604 65.7413 311.199 65.976C310.794 66.2 310.463 66.536 310.207 66.984C309.962 67.4213 309.839 67.944 309.839 68.552C309.839 69.16 309.962 69.6933 310.207 70.152C310.463 70.6107 310.794 70.9627 311.199 71.208C311.615 71.4427 312.052 71.56 312.511 71.56C312.98 71.56 313.418 71.4427 313.823 71.208C314.228 70.9733 314.554 70.632 314.799 70.184C315.055 69.7253 315.183 69.192 315.183 68.584ZM318.811 68.552C318.811 67.6667 318.992 66.8827 319.355 66.2C319.728 65.5173 320.229 64.9893 320.859 64.616C321.499 64.232 322.203 64.04 322.971 64.04C323.664 64.04 324.267 64.1787 324.779 64.456C325.301 64.7227 325.717 65.0587 326.027 65.464V64.184H327.867V73H326.027V71.688C325.717 72.104 325.296 72.4507 324.763 72.728C324.229 73.0053 323.621 73.144 322.939 73.144C322.181 73.144 321.488 72.952 320.859 72.568C320.229 72.1733 319.728 71.6293 319.355 70.936C318.992 70.232 318.811 69.4373 318.811 68.552ZM326.027 68.584C326.027 67.976 325.899 67.448 325.643 67C325.397 66.552 325.072 66.2107 324.667 65.976C324.261 65.7413 323.824 65.624 323.355 65.624C322.885 65.624 322.448 65.7413 322.043 65.976C321.637 66.2 321.307 66.536 321.051 66.984C320.805 67.4213 320.683 67.944 320.683 68.552C320.683 69.16 320.805 69.6933 321.051 70.152C321.307 70.6107 321.637 70.9627 322.043 71.208C322.459 71.4427 322.896 71.56 323.355 71.56C323.824 71.56 324.261 71.4427 324.667 71.208C325.072 70.9733 325.397 70.632 325.643 70.184C325.899 69.7253 326.027 69.192 326.027 68.584ZM330.999 73.112C330.668 73.112 330.391 73 330.167 72.776C329.943 72.552 329.831 72.2747 329.831 71.944C329.831 71.6133 329.943 71.336 330.167 71.112C330.391 70.888 330.668 70.776 330.999 70.776C331.319 70.776 331.591 70.888 331.815 71.112C332.039 71.336 332.151 71.6133 332.151 71.944C332.151 72.2747 332.039 72.552 331.815 72.776C331.591 73 331.319 73.112 330.999 73.112Z" fill="#4B5563"/>
</g>
<defs>
<clipPath id="clip0_1_42">
<rect width="370" height="110" fill="white"/>
</clipPath>
</defs>
</svg>
